G75*
G70*
%OFA0B0*%
%FSLAX24Y24*%
%IPPOS*%
%LPD*%
%AMOC8*
5,1,8,0,0,1.08239X$1,22.5*
%
%ADD10C,0.0820*%
%ADD11C,0.0730*%
%ADD12OC8,0.0640*%
%ADD13R,0.0820X0.0820*%
%ADD14C,0.0680*%
D10*
X002151Y001494D03*
X003151Y001494D03*
X004151Y001494D03*
X009151Y001494D03*
X010151Y001494D03*
X011151Y001494D03*
X012151Y001494D03*
X013151Y001494D03*
X014151Y001494D03*
X015151Y001494D03*
X016151Y001494D03*
X017151Y001494D03*
X018151Y001494D03*
X019151Y001494D03*
X020151Y001494D03*
X021151Y001494D03*
X022416Y001904D03*
X022416Y003044D03*
X021151Y002994D03*
X020151Y002994D03*
X019151Y002994D03*
X018151Y002994D03*
X017151Y002994D03*
X016151Y002994D03*
X015151Y002994D03*
X014151Y002994D03*
X013151Y002994D03*
X012151Y002994D03*
X021151Y009494D03*
X022151Y009494D03*
X022151Y011494D03*
X021151Y011494D03*
X021401Y013994D03*
X021401Y014994D03*
X021401Y015994D03*
X021151Y017994D03*
X020151Y017994D03*
X019151Y017994D03*
X018151Y017994D03*
X017151Y017994D03*
X016151Y017994D03*
X015151Y017994D03*
X014151Y017994D03*
X013151Y017994D03*
X012151Y017994D03*
X012156Y019469D03*
X011151Y019494D03*
X010151Y019494D03*
X009151Y019494D03*
X013156Y019469D03*
X014156Y019469D03*
X015156Y019469D03*
X016156Y019469D03*
X017156Y019469D03*
X018156Y019469D03*
X019156Y019469D03*
X020156Y019469D03*
X021156Y019469D03*
X022401Y019064D03*
X022401Y017924D03*
X021401Y006994D03*
X021401Y005994D03*
X021401Y004994D03*
X004151Y019494D03*
X003151Y019494D03*
X002151Y019494D03*
D11*
X005651Y019494D03*
X006651Y019494D03*
X006651Y001494D03*
X005651Y001494D03*
D12*
X022416Y004069D03*
X022416Y006069D03*
X022411Y014994D03*
X022411Y016994D03*
D13*
X001151Y001494D03*
X008151Y001494D03*
X008151Y019494D03*
X001151Y019494D03*
D14*
X001151Y017994D03*
X002151Y017994D03*
X002151Y016994D03*
X001151Y016994D03*
X001151Y015994D03*
X002151Y015994D03*
X002151Y014994D03*
X001151Y014994D03*
X001151Y013994D03*
X002151Y013994D03*
X002151Y012994D03*
X001151Y012994D03*
X001151Y011994D03*
X002151Y011994D03*
X002151Y010994D03*
X001151Y010994D03*
X001151Y009994D03*
X002151Y009994D03*
X002151Y008994D03*
X001151Y008994D03*
X001151Y007994D03*
X002151Y007994D03*
X002151Y006994D03*
X001151Y006994D03*
X001151Y005994D03*
X002151Y005994D03*
X002151Y004994D03*
X001151Y004994D03*
X001151Y003994D03*
X002151Y003994D03*
X002151Y002994D03*
X001151Y002994D03*
X003151Y002994D03*
X004151Y002994D03*
X005151Y002994D03*
X006151Y002994D03*
X007151Y002994D03*
X007151Y003994D03*
X006151Y003994D03*
X005151Y003994D03*
X004151Y003994D03*
X003151Y003994D03*
X003151Y004994D03*
X004151Y004994D03*
X005151Y004994D03*
X006151Y004994D03*
X007151Y004994D03*
X007151Y005994D03*
X006151Y005994D03*
X005151Y005994D03*
X004151Y005994D03*
X003151Y005994D03*
X003151Y006994D03*
X004151Y006994D03*
X005151Y006994D03*
X006151Y006994D03*
X007151Y006994D03*
X007151Y007994D03*
X006151Y007994D03*
X005151Y007994D03*
X004151Y007994D03*
X003151Y007994D03*
X003151Y008994D03*
X004151Y008994D03*
X005151Y008994D03*
X006151Y008994D03*
X007151Y008994D03*
X007151Y009994D03*
X006151Y009994D03*
X005151Y009994D03*
X004151Y009994D03*
X003151Y009994D03*
X003151Y010994D03*
X004151Y010994D03*
X005151Y010994D03*
X006151Y010994D03*
X007151Y010994D03*
X007151Y011994D03*
X006151Y011994D03*
X005151Y011994D03*
X004151Y011994D03*
X003151Y011994D03*
X003151Y012994D03*
X004151Y012994D03*
X005151Y012994D03*
X006151Y012994D03*
X007151Y012994D03*
X007151Y013994D03*
X006151Y013994D03*
X005151Y013994D03*
X004151Y013994D03*
X003151Y013994D03*
X003151Y014994D03*
X004151Y014994D03*
X005151Y014994D03*
X006151Y014994D03*
X007151Y014994D03*
X007151Y015994D03*
X006151Y015994D03*
X005151Y015994D03*
X004151Y015994D03*
X003151Y015994D03*
X003151Y016994D03*
X004151Y016994D03*
X005151Y016994D03*
X006151Y016994D03*
X007151Y016994D03*
X007151Y017994D03*
X006151Y017994D03*
X005151Y017994D03*
X004151Y017994D03*
X003151Y017994D03*
X008151Y017994D03*
X009151Y017994D03*
X010151Y017994D03*
X011151Y017994D03*
X011151Y016994D03*
X010151Y016994D03*
X009151Y016994D03*
X008151Y016994D03*
X008151Y015994D03*
X009151Y015994D03*
X010151Y015994D03*
X011151Y015994D03*
X012151Y015994D03*
X012151Y016994D03*
X013151Y016994D03*
X013151Y015994D03*
X013151Y014994D03*
X012151Y014994D03*
X011151Y014994D03*
X010151Y014994D03*
X009151Y014994D03*
X008151Y014994D03*
X008151Y013994D03*
X009151Y013994D03*
X010151Y013994D03*
X011151Y013994D03*
X012151Y013994D03*
X013151Y013994D03*
X013151Y012994D03*
X012151Y012994D03*
X011151Y012994D03*
X010151Y012994D03*
X009151Y012994D03*
X008151Y012994D03*
X008151Y011994D03*
X009151Y011994D03*
X010151Y011994D03*
X011151Y011994D03*
X012151Y011994D03*
X013151Y011994D03*
X013151Y010994D03*
X012151Y010994D03*
X011151Y010994D03*
X010151Y010994D03*
X009151Y010994D03*
X008151Y010994D03*
X008151Y009994D03*
X009151Y009994D03*
X010151Y009994D03*
X011151Y009994D03*
X012151Y009994D03*
X013151Y009994D03*
X013151Y008994D03*
X012151Y008994D03*
X011151Y008994D03*
X010151Y008994D03*
X009151Y008994D03*
X008151Y008994D03*
X008151Y007994D03*
X009151Y007994D03*
X010151Y007994D03*
X011151Y007994D03*
X012151Y007994D03*
X013151Y007994D03*
X013151Y006994D03*
X012151Y006994D03*
X011151Y006994D03*
X010151Y006994D03*
X009151Y006994D03*
X008151Y006994D03*
X008151Y005994D03*
X009151Y005994D03*
X010151Y005994D03*
X011151Y005994D03*
X012151Y005994D03*
X013151Y005994D03*
X013151Y004994D03*
X012151Y004994D03*
X011151Y004994D03*
X010151Y004994D03*
X009151Y004994D03*
X008151Y004994D03*
X008151Y003994D03*
X009151Y003994D03*
X010151Y003994D03*
X011151Y003994D03*
X012151Y003994D03*
X013151Y003994D03*
X014151Y003994D03*
X014151Y004994D03*
X015151Y004994D03*
X015151Y003994D03*
X016151Y003994D03*
X016151Y004994D03*
X017151Y004994D03*
X017151Y003994D03*
X018151Y003994D03*
X018151Y004994D03*
X018151Y005994D03*
X017151Y005994D03*
X016151Y005994D03*
X015151Y005994D03*
X014151Y005994D03*
X014151Y006994D03*
X015151Y006994D03*
X016151Y006994D03*
X017151Y006994D03*
X018151Y006994D03*
X018151Y007994D03*
X017151Y007994D03*
X016151Y007994D03*
X015151Y007994D03*
X014151Y007994D03*
X014151Y008994D03*
X015151Y008994D03*
X016151Y008994D03*
X017151Y008994D03*
X018151Y008994D03*
X018151Y009994D03*
X017151Y009994D03*
X016151Y009994D03*
X015151Y009994D03*
X014151Y009994D03*
X014151Y010994D03*
X015151Y010994D03*
X016151Y010994D03*
X017151Y010994D03*
X018151Y010994D03*
X018151Y011994D03*
X017151Y011994D03*
X016151Y011994D03*
X015151Y011994D03*
X014151Y011994D03*
X014151Y012994D03*
X015151Y012994D03*
X016151Y012994D03*
X017151Y012994D03*
X018151Y012994D03*
X018151Y013994D03*
X017151Y013994D03*
X016151Y013994D03*
X015151Y013994D03*
X014151Y013994D03*
X014151Y014994D03*
X015151Y014994D03*
X016151Y014994D03*
X017151Y014994D03*
X018151Y014994D03*
X018151Y015994D03*
X017151Y015994D03*
X016151Y015994D03*
X015151Y015994D03*
X014151Y015994D03*
X014151Y016994D03*
X015151Y016994D03*
X016151Y016994D03*
X017151Y016994D03*
X018151Y016994D03*
X019151Y016994D03*
X019151Y015994D03*
X020151Y015994D03*
X020151Y016994D03*
X020151Y014994D03*
X019151Y014994D03*
X019151Y013994D03*
X020151Y013994D03*
X020151Y012994D03*
X019151Y012994D03*
X019151Y011994D03*
X020151Y011994D03*
X020151Y010994D03*
X019151Y010994D03*
X019151Y009994D03*
X020151Y009994D03*
X020151Y008994D03*
X019151Y008994D03*
X019151Y007994D03*
X020151Y007994D03*
X020151Y006994D03*
X019151Y006994D03*
X019151Y005994D03*
X020151Y005994D03*
X020151Y004994D03*
X019151Y004994D03*
X019151Y003994D03*
X020151Y003994D03*
X011151Y002994D03*
X010151Y002994D03*
X009151Y002994D03*
X008151Y002994D03*
M02*
