%
M48
M72
T01C0.0276
T02C0.0320
T03C0.0400
%
T01
X5651Y1494
X6651Y1494
X6651Y19494
X5651Y19494
T02
X21151Y11494
X22151Y11494
X22151Y9494
X21151Y9494
X22416Y6069
X22416Y4069
X22411Y14994
X22411Y16994
T03
X1151Y1494
X2151Y1494
X3151Y1494
X4151Y1494
X4151Y2994
X3151Y2994
X2151Y2994
X1151Y2994
X1151Y3994
X1151Y4994
X2151Y4994
X2151Y3994
X3151Y3994
X3151Y4994
X4151Y4994
X4151Y3994
X5151Y3994
X5151Y4994
X6151Y4994
X6151Y3994
X7151Y3994
X7151Y4994
X7151Y5994
X6151Y5994
X5151Y5994
X4151Y5994
X3151Y5994
X2151Y5994
X1151Y5994
X1151Y6994
X2151Y6994
X2151Y7994
X1151Y7994
X1151Y8994
X2151Y8994
X2151Y9994
X1151Y9994
X1151Y10994
X2151Y10994
X2151Y11994
X1151Y11994
X1151Y12994
X2151Y12994
X2151Y13994
X1151Y13994
X1151Y14994
X2151Y14994
X2151Y15994
X1151Y15994
X1151Y16994
X2151Y16994
X2151Y17994
X1151Y17994
X1151Y19494
X2151Y19494
X3151Y19494
X4151Y19494
X4151Y17994
X3151Y17994
X3151Y16994
X3151Y15994
X4151Y15994
X4151Y16994
X5151Y16994
X5151Y15994
X6151Y15994
X6151Y16994
X7151Y16994
X7151Y15994
X7151Y14994
X6151Y14994
X5151Y14994
X4151Y14994
X3151Y14994
X3151Y13994
X4151Y13994
X5151Y13994
X6151Y13994
X7151Y13994
X7151Y12994
X6151Y12994
X5151Y12994
X4151Y12994
X3151Y12994
X3151Y11994
X4151Y11994
X5151Y11994
X6151Y11994
X7151Y11994
X7151Y10994
X6151Y10994
X5151Y10994
X4151Y10994
X3151Y10994
X3151Y9994
X4151Y9994
X5151Y9994
X6151Y9994
X7151Y9994
X7151Y8994
X6151Y8994
X5151Y8994
X4151Y8994
X3151Y8994
X3151Y7994
X4151Y7994
X5151Y7994
X6151Y7994
X7151Y7994
X7151Y6994
X6151Y6994
X5151Y6994
X4151Y6994
X3151Y6994
X5151Y2994
X6151Y2994
X7151Y2994
X8151Y2994
X9151Y2994
X10151Y2994
X11151Y2994
X12151Y2994
X13151Y2994
X13151Y3994
X12151Y3994
X11151Y3994
X10151Y3994
X9151Y3994
X8151Y3994
X8151Y4994
X9151Y4994
X10151Y4994
X11151Y4994
X12151Y4994
X13151Y4994
X13151Y5994
X12151Y5994
X11151Y5994
X10151Y5994
X9151Y5994
X8151Y5994
X8151Y6994
X9151Y6994
X10151Y6994
X11151Y6994
X12151Y6994
X13151Y6994
X13151Y7994
X12151Y7994
X11151Y7994
X10151Y7994
X9151Y7994
X8151Y7994
X8151Y8994
X9151Y8994
X10151Y8994
X11151Y8994
X12151Y8994
X13151Y8994
X13151Y9994
X12151Y9994
X11151Y9994
X10151Y9994
X9151Y9994
X8151Y9994
X8151Y10994
X9151Y10994
X10151Y10994
X11151Y10994
X12151Y10994
X13151Y10994
X13151Y11994
X12151Y11994
X11151Y11994
X10151Y11994
X9151Y11994
X8151Y11994
X8151Y12994
X9151Y12994
X10151Y12994
X11151Y12994
X12151Y12994
X13151Y12994
X13151Y13994
X12151Y13994
X11151Y13994
X10151Y13994
X9151Y13994
X8151Y13994
X8151Y14994
X9151Y14994
X10151Y14994
X11151Y14994
X12151Y14994
X13151Y14994
X13151Y15994
X12151Y15994
X11151Y15994
X10151Y15994
X9151Y15994
X8151Y15994
X8151Y16994
X9151Y16994
X10151Y16994
X11151Y16994
X12151Y16994
X13151Y16994
X13151Y17994
X12151Y17994
X11151Y17994
X10151Y17994
X9151Y17994
X8151Y17994
X7151Y17994
X6151Y17994
X5151Y17994
X8151Y19494
X9151Y19494
X10151Y19494
X11151Y19494
X12156Y19469
X13156Y19469
X14156Y19469
X15156Y19469
X16156Y19469
X17156Y19469
X18156Y19469
X19156Y19469
X20156Y19469
X21156Y19469
X22401Y19064
X22401Y17924
X21151Y17994
X20151Y17994
X19151Y17994
X18151Y17994
X17151Y17994
X16151Y17994
X15151Y17994
X14151Y17994
X14151Y16994
X14151Y15994
X15151Y15994
X15151Y16994
X16151Y16994
X16151Y15994
X17151Y15994
X17151Y16994
X18151Y16994
X18151Y15994
X18151Y14994
X17151Y14994
X16151Y14994
X15151Y14994
X14151Y14994
X14151Y13994
X15151Y13994
X16151Y13994
X17151Y13994
X18151Y13994
X18151Y12994
X17151Y12994
X16151Y12994
X15151Y12994
X14151Y12994
X14151Y11994
X15151Y11994
X16151Y11994
X17151Y11994
X18151Y11994
X18151Y10994
X17151Y10994
X16151Y10994
X15151Y10994
X14151Y10994
X14151Y9994
X15151Y9994
X16151Y9994
X17151Y9994
X18151Y9994
X18151Y8994
X17151Y8994
X16151Y8994
X15151Y8994
X14151Y8994
X14151Y7994
X15151Y7994
X16151Y7994
X17151Y7994
X18151Y7994
X18151Y6994
X17151Y6994
X16151Y6994
X15151Y6994
X14151Y6994
X14151Y5994
X15151Y5994
X16151Y5994
X17151Y5994
X18151Y5994
X18151Y4994
X17151Y4994
X16151Y4994
X15151Y4994
X14151Y4994
X14151Y3994
X15151Y3994
X16151Y3994
X17151Y3994
X18151Y3994
X18151Y2994
X17151Y2994
X16151Y2994
X15151Y2994
X14151Y2994
X14151Y1494
X15151Y1494
X16151Y1494
X17151Y1494
X18151Y1494
X19151Y1494
X20151Y1494
X21151Y1494
X22416Y1904
X22416Y3044
X21151Y2994
X20151Y2994
X19151Y2994
X19151Y3994
X19151Y4994
X20151Y4994
X20151Y3994
X21401Y4994
X21401Y5994
X21401Y6994
X20151Y6994
X19151Y6994
X19151Y7994
X19151Y8994
X20151Y8994
X20151Y7994
X20151Y9994
X19151Y9994
X19151Y10994
X20151Y10994
X20151Y11994
X19151Y11994
X19151Y12994
X20151Y12994
X20151Y13994
X19151Y13994
X19151Y14994
X20151Y14994
X20151Y15994
X19151Y15994
X19151Y16994
X20151Y16994
X21401Y15994
X21401Y14994
X21401Y13994
X20151Y5994
X19151Y5994
X13151Y1494
X12151Y1494
X11151Y1494
X10151Y1494
X9151Y1494
X8151Y1494
M30
